# xmcd
#
# Track frame offsets:
#	150
#	18451
#	29582
#	44084
#	60628
#	69184
#	85082
#	110669
#	126234
#	137340
#	152129
#	165631
#	179350
#	205374
#	222182
#	241029
#	268251
#	286815
#
# Disc length: 3990 seconds
#
# Revision: 1
# Processed by: cddbd v1.5.2PL0 Copyright (c) Steve Scherf et al.
# Submitted via: audiograbber 1.83.01
#
DISCID=060f9412
DTITLE=Boogie Radio - music to watch girls by
DYEAR=2005
DGENRE=Blues
TTITLE0=Might River
TTITLE1=Caffeine Boggie
TTITLE2=Wait, Honey!
TTITLE3=Lazy Day
TTITLE4=Ella
TTITLE5=It's you
TTITLE6=Backdoors Blues
TTITLE7=Evil Woman (on my trail)
TTITLE8=What else love can bring
TTITLE9=So good
TTITLE10=Can't stop watchin'
TTITLE11=Over the Hill
TTITLE12=I wanna grow old with you, Baby
TTITLE13=Burnin' for the Blues
TTITLE14=I'm just your fool
TTITLE15=What a girl
TTITLE16=Games
TTITLE17=Do do right
EXTD=
EXTT0=
EXTT1=
EXTT2=
EXTT3=
EXTT4=
EXTT5=
EXTT6=
EXTT7=
EXTT8=
EXTT9=
EXTT10=
EXTT11=
EXTT12=
EXTT13=
EXTT14=
EXTT15=
EXTT16=
EXTT17=
PLAYORDER=
